Land_normalized_Motion_pl06
version=1
nRows=12
nColumns=43
inDegrees=yes
endheader
time		pelvis_tilt		pelvis_list		pelvis_rotation		pelvis_tx		pelvis_ty		pelvis_tz		hip_flexion_r		hip_adduction_r		hip_rotation_r		knee_angle_r		ankle_angle_r		subtalar_angle_r		mtp_angle_r		hip_flexion_l		hip_adduction_l		hip_rotation_l		knee_angle_l		ankle_angle_l		subtalar_angle_l		mtp_angle_l		lumbar_extension		lumbar_bending		lumbar_rotation		neck_flexion		neck_lateral_bending		neck_rotation		arm_flex_r		arm_add_r		arm_rot_r		elbow_flex_r		pro_sup_r		wrist_flex_r		wrist_dev_r		hand_finger_flex_r		arm_flex_l		arm_add_l		arm_rot_l		elbow_flex_l		pro_sup_l		wrist_flex_l		wrist_dev_l		hand_finger_flex_l		
1.140833		1.847099		22.598068		90.423367		-0.016204		0.648834		0.511309		42.082055		-3.682605		-2.467507		-101.450434		24.310224		-2.301146		12.619242		43.363966		0.788525		-2.265012		-99.162263		23.213752		-18.799679		17.070071		-68.171052		-1.361919		-5.869069		5.093278		1.708689		1.941554		7.709144		-22.502247		-6.490084		40.856182		98.623537		-21.986462		4.524795		60.586330		9.350028		-22.816014		-19.834274		49.124142		132.059828		-34.081359		1.432831		90.000210		
1.143737		1.627848		22.461293		90.715936		-0.017114		0.641956		0.510137		43.428554		-3.827470		-2.055329		-103.243180		23.449376		-2.541645		12.739665		44.666715		1.360811		-2.161014		-100.837774		22.476612		-19.017245		17.131812		-68.639503		-1.245503		-5.889597		5.980739		1.805867		1.531968		9.777116		-22.627651		-6.160258		41.661652		98.659607		-22.089228		4.422749		60.580308		11.505229		-23.030800		-19.133544		50.007009		132.098654		-33.988147		1.396767		90.000210		
1.146641		1.433795		22.315349		90.950538		-0.017895		0.635186		0.508958		44.759258		-3.904921		-1.619955		-104.961594		22.638173		-2.724518		12.916944		45.951197		1.873645		-2.107644		-102.455675		21.727468		-19.346032		17.210724		-69.089729		-1.166497		-5.891316		6.892068		1.924693		1.173172		11.849652		-22.762662		-5.791318		42.481454		98.654951		-22.195955		4.308929		60.598596		13.656189		-23.265038		-18.352151		50.864400		132.140792		-33.891651		1.421599		90.000210		
1.149545		1.156611		21.965348		91.113647		-0.018463		0.627967		0.507772		46.398958		-3.941335		-1.033928		-106.699858		21.665579		-3.031584		13.552102		47.476712		2.374536		-2.264440		-104.025695		20.679574		-20.253372		17.509284		-69.290097		-1.232768		-5.881781		7.697945		2.057460		0.685820		13.797595		-22.983568		-5.254347		43.393332		98.217156		-22.491100		4.217126		60.761585		15.858183		-23.596469		-17.154542		51.673186		132.083654		-33.911570		1.966110		90.000210		
1.152449		0.947868		21.812937		91.200523		-0.018967		0.621349		0.506647		47.776313		-3.878574		-0.455881		-108.314968		20.600619		-3.279786		14.582572		48.714891		2.772864		-2.406698		-105.505968		19.740031		-20.984704		18.095695		-69.707546		-1.312793		-5.809458		8.520949		2.167757		0.205501		15.771853		-23.328572		-4.420033		44.348601		97.599555		-22.874764		4.153375		61.049134		18.030218		-23.982118		-15.747290		52.572855		132.082516		-34.157411		2.670850		90.000210		
1.155354		0.954092		21.976905		91.251961		-0.019562		0.615850		0.505676		48.668771		-3.692592		-0.073426		-109.728178		19.726511		-3.170958		14.777530		49.488790		2.992193		-2.360190		-106.848127		19.182964		-21.012470		18.221806		-70.491289		-1.231773		-5.680231		9.455893		2.282817		0.009831		17.980560		-23.550248		-3.839446		45.168435		97.577517		-22.884930		4.073748		61.106920		20.169287		-24.239767		-14.790401		53.454523		132.253245		-34.164199		2.681288		90.000210		
1.158258		0.889457		21.740448		91.174372		-0.019838		0.609405		0.504686		50.164299		-3.437153		0.428430		-111.210041		18.539679		-3.448948		15.454206		50.750478		3.141146		-2.529145		-108.198097		18.398109		-21.606679		18.599961		-70.795059		-1.352186		-5.464242		10.187651		2.381914		-0.479243		19.981760		-23.960048		-2.948177		46.149882		97.043007		-23.101140		4.117859		61.317685		22.405388		-24.631076		-13.203126		54.214850		132.360163		-34.290597		3.334998		90.000210		
1.161162		0.902532		21.672418		91.079003		-0.020191		0.603668		0.503832		51.401162		-3.158079		0.844448		-112.555456		17.438200		-3.462213		15.885514		51.729285		3.215257		-2.614591		-109.417497		17.846219		-21.813244		18.874347		-71.303659		-1.413706		-5.254507		10.979613		2.481608		-0.791503		22.135523		-24.329783		-2.053149		47.034080		96.787119		-23.254651		4.119849		61.443380		24.626985		-24.969960		-11.815033		54.991691		132.520043		-34.319273		3.707641		90.000210		
1.164066		0.914431		21.530710		90.947449		-0.020570		0.597946		0.503028		52.734941		-2.888250		1.253498		-113.852421		16.281837		-3.510485		16.361674		52.750410		3.254158		-2.735080		-110.569087		17.341232		-22.063591		19.184308		-71.727388		-1.508671		-5.028258		11.730659		2.578888		-1.114761		24.287276		-24.755130		-1.054471		47.915069		96.514438		-23.440420		4.138879		61.586529		26.882264		-25.308896		-10.326848		55.724210		132.682863		-34.338839		4.139023		90.000210		
1.166970		0.934301		21.438875		90.796814		-0.020924		0.592306		0.502215		54.026991		-2.640466		1.614253		-115.135577		15.094855		-3.491001		16.577720		53.675056		3.259479		-2.821887		-111.688872		16.987225		-22.137486		19.371682		-72.153469		-1.606108		-4.850978		12.305568		2.661910		-1.404618		26.451507		-25.240359		0.157121		48.851845		96.607557		-23.481420		4.128468		61.693920		29.058338		-25.723812		-8.822777		56.452748		132.944492		-34.209319		4.258167		90.000210		
1.169874		0.828156		20.919403		90.542340		-0.021123		0.585949		0.501475		55.871446		-2.326509		2.117363		-116.383389		13.812893		-4.002308		17.385263		55.061499		3.219582		-3.159700		-112.741306		16.605082		-22.454733		19.924203		-72.117997		-1.913911		-4.624319		12.817244		2.760134		-1.798103		28.565859		-25.767726		1.442739		49.644116		96.019767		-24.309497		4.214359		61.930919		31.458566		-25.994401		-7.053994		56.972816		132.942810		-34.288961		5.183867		90.000210		
1.172778		0.809854		20.864998		90.481282		-0.021847		0.580755		0.500771		57.035154		-2.240472		2.387686		-117.493532		12.677013		-4.006830		17.736668		55.824691		3.312745		-3.251495		-113.703814		16.440684		-22.446928		20.222542		-72.600095		-1.941607		-4.518469		13.450948		2.882506		-1.970826		30.810507		-26.300144		2.774830		50.501883		96.143127		-24.594016		4.155821		62.124391		33.676597		-26.312825		-5.606606		57.691490		133.219546		-34.263865		5.286550		90.000210		
